<mxfile host="Electron" agent="Mozilla/5.0 (Windows NT 10.0; Win64; x64) AppleWebKit/537.36 (KHTML, like Gecko) draw.io/26.2.2 Chrome/134.0.6998.178 Electron/35.1.2 Safari/537.36" version="26.2.2">
  <diagram name="Page-1" id="Fruf3kEZcReUQYjlZcKd">
    <mxGraphModel dx="1428" dy="2010" grid="1" gridSize="10" guides="1" tooltips="1" connect="1" arrows="1" fold="1" page="1" pageScale="1" pageWidth="827" pageHeight="1169" math="0" shadow="0">
      <root>
        <mxCell id="0" />
        <mxCell id="1" parent="0" />
        <mxCell id="p2FJRCKIppxcUD3lW_PI-14" value="Passanger" style="swimlane;childLayout=stackLayout;horizontal=1;startSize=50;horizontalStack=0;rounded=1;fontSize=14;fontStyle=0;strokeWidth=2;resizeParent=0;resizeLast=1;shadow=0;dashed=0;align=center;arcSize=4;whiteSpace=wrap;html=1;" vertex="1" parent="1">
          <mxGeometry x="80" y="160" width="160" height="120" as="geometry" />
        </mxCell>
        <mxCell id="p2FJRCKIppxcUD3lW_PI-15" value="name&lt;div&gt;phone number&lt;/div&gt;" style="align=left;strokeColor=none;fillColor=none;spacingLeft=4;spacingRight=4;fontSize=12;verticalAlign=top;resizable=0;rotatable=0;part=1;html=1;whiteSpace=wrap;" vertex="1" parent="p2FJRCKIppxcUD3lW_PI-14">
          <mxGeometry y="50" width="160" height="70" as="geometry" />
        </mxCell>
        <mxCell id="p2FJRCKIppxcUD3lW_PI-16" value="Flight" style="swimlane;childLayout=stackLayout;horizontal=1;startSize=50;horizontalStack=0;rounded=1;fontSize=14;fontStyle=0;strokeWidth=2;resizeParent=0;resizeLast=1;shadow=0;dashed=0;align=center;arcSize=4;whiteSpace=wrap;html=1;" vertex="1" parent="1">
          <mxGeometry x="490" y="150" width="160" height="170" as="geometry" />
        </mxCell>
        <mxCell id="p2FJRCKIppxcUD3lW_PI-17" value="number&lt;div&gt;name&lt;/div&gt;&lt;div&gt;duration&lt;/div&gt;&lt;div&gt;miles&lt;/div&gt;&lt;div&gt;Airline&lt;/div&gt;&lt;div&gt;DepartureDate&lt;/div&gt;&lt;div&gt;ArrivalDate&lt;/div&gt;" style="align=left;strokeColor=none;fillColor=none;spacingLeft=4;spacingRight=4;fontSize=12;verticalAlign=top;resizable=0;rotatable=0;part=1;html=1;whiteSpace=wrap;" vertex="1" parent="p2FJRCKIppxcUD3lW_PI-16">
          <mxGeometry y="50" width="160" height="120" as="geometry" />
        </mxCell>
        <mxCell id="p2FJRCKIppxcUD3lW_PI-23" value="Airport" style="swimlane;childLayout=stackLayout;horizontal=1;startSize=50;horizontalStack=0;rounded=1;fontSize=14;fontStyle=0;strokeWidth=2;resizeParent=0;resizeLast=1;shadow=0;dashed=0;align=center;arcSize=4;whiteSpace=wrap;html=1;" vertex="1" parent="1">
          <mxGeometry x="510" y="370" width="160" height="170" as="geometry" />
        </mxCell>
        <mxCell id="p2FJRCKIppxcUD3lW_PI-24" value="name&lt;div&gt;IATA CODE&lt;br&gt;&lt;div&gt;city&lt;/div&gt;&lt;div&gt;country&lt;/div&gt;&lt;div&gt;&lt;br&gt;&lt;/div&gt;&lt;/div&gt;" style="align=left;strokeColor=none;fillColor=none;spacingLeft=4;spacingRight=4;fontSize=12;verticalAlign=top;resizable=0;rotatable=0;part=1;html=1;whiteSpace=wrap;" vertex="1" parent="p2FJRCKIppxcUD3lW_PI-23">
          <mxGeometry y="50" width="160" height="120" as="geometry" />
        </mxCell>
        <mxCell id="p2FJRCKIppxcUD3lW_PI-25" value="Ticket" style="swimlane;childLayout=stackLayout;horizontal=1;startSize=50;horizontalStack=0;rounded=1;fontSize=14;fontStyle=0;strokeWidth=2;resizeParent=0;resizeLast=1;shadow=0;dashed=0;align=center;arcSize=4;whiteSpace=wrap;html=1;" vertex="1" parent="1">
          <mxGeometry x="300" y="-70" width="160" height="120" as="geometry" />
        </mxCell>
        <mxCell id="p2FJRCKIppxcUD3lW_PI-26" value="number&lt;div&gt;class&lt;/div&gt;&lt;div&gt;price&lt;/div&gt;&lt;div&gt;ConfirmationNumber&lt;/div&gt;" style="align=left;strokeColor=none;fillColor=none;spacingLeft=4;spacingRight=4;fontSize=12;verticalAlign=top;resizable=0;rotatable=0;part=1;html=1;whiteSpace=wrap;" vertex="1" parent="p2FJRCKIppxcUD3lW_PI-25">
          <mxGeometry y="50" width="160" height="70" as="geometry" />
        </mxCell>
        <mxCell id="p2FJRCKIppxcUD3lW_PI-29" value="" style="edgeStyle=entityRelationEdgeStyle;fontSize=12;html=1;endArrow=ERmany;startArrow=ERmany;rounded=0;" edge="1" parent="1" source="p2FJRCKIppxcUD3lW_PI-14" target="p2FJRCKIppxcUD3lW_PI-25">
          <mxGeometry width="100" height="100" relative="1" as="geometry">
            <mxPoint x="70" y="110" as="sourcePoint" />
            <mxPoint x="170" y="10" as="targetPoint" />
            <Array as="points">
              <mxPoint x="100" />
              <mxPoint x="100" y="10" />
            </Array>
          </mxGeometry>
        </mxCell>
        <mxCell id="p2FJRCKIppxcUD3lW_PI-37" value="purchases" style="edgeLabel;html=1;align=center;verticalAlign=middle;resizable=0;points=[];" vertex="1" connectable="0" parent="p2FJRCKIppxcUD3lW_PI-29">
          <mxGeometry x="0.2543" y="-1" relative="1" as="geometry">
            <mxPoint as="offset" />
          </mxGeometry>
        </mxCell>
        <mxCell id="p2FJRCKIppxcUD3lW_PI-30" value="" style="edgeStyle=entityRelationEdgeStyle;fontSize=12;html=1;endArrow=ERmany;startArrow=ERmany;rounded=0;" edge="1" parent="1" source="p2FJRCKIppxcUD3lW_PI-25" target="p2FJRCKIppxcUD3lW_PI-16">
          <mxGeometry width="100" height="100" relative="1" as="geometry">
            <mxPoint x="490" y="60" as="sourcePoint" />
            <mxPoint x="590" y="-40" as="targetPoint" />
            <Array as="points">
              <mxPoint x="630" y="-140" />
              <mxPoint x="610" y="-140" />
              <mxPoint x="640" y="-150" />
            </Array>
          </mxGeometry>
        </mxCell>
        <mxCell id="p2FJRCKIppxcUD3lW_PI-38" value="Issued" style="edgeLabel;html=1;align=center;verticalAlign=middle;resizable=0;points=[];" vertex="1" connectable="0" parent="p2FJRCKIppxcUD3lW_PI-30">
          <mxGeometry x="0.0137" relative="1" as="geometry">
            <mxPoint as="offset" />
          </mxGeometry>
        </mxCell>
        <mxCell id="p2FJRCKIppxcUD3lW_PI-36" value="" style="edgeStyle=entityRelationEdgeStyle;fontSize=12;html=1;endArrow=ERmany;startArrow=ERmany;rounded=0;entryX=1.019;entryY=0.147;entryDx=0;entryDy=0;entryPerimeter=0;" edge="1" parent="1" source="p2FJRCKIppxcUD3lW_PI-23" target="p2FJRCKIppxcUD3lW_PI-16">
          <mxGeometry width="100" height="100" relative="1" as="geometry">
            <mxPoint x="620" y="420" as="sourcePoint" />
            <mxPoint x="720" y="320" as="targetPoint" />
            <Array as="points">
              <mxPoint x="986" y="440" />
            </Array>
          </mxGeometry>
        </mxCell>
        <mxCell id="p2FJRCKIppxcUD3lW_PI-39" value="Arrives" style="edgeLabel;html=1;align=center;verticalAlign=middle;resizable=0;points=[];" vertex="1" connectable="0" parent="p2FJRCKIppxcUD3lW_PI-36">
          <mxGeometry x="0.0725" relative="1" as="geometry">
            <mxPoint as="offset" />
          </mxGeometry>
        </mxCell>
      </root>
    </mxGraphModel>
  </diagram>
</mxfile>
